<?xml version="1.0" encoding="UTF-8"?>
<svg xmlns="http://www.w3.org/2000/svg" xmlns:xlink="http://www.w3.org/1999/xlink" viewBox="0 0 250 68.161" height="68.161" width="250">    <defs>
        <style>.cls-1{fill:none;}.cls-2{clip-path:url(#clip-path);}.cls-3{fill:#fff;}.cls-4{fill:#fff;}</style>
        <clipPath id="clip-path">
            <rect class="cls-1" width="250" height="68.161"></rect>
        </clipPath>
    </defs>
    <title>logo-header</title>
    <g id="Layer_2" data-name="Layer 2">
        <g id="Calque_1" data-name="Calque 1">
            <g class="cls-2">
                <path class="cls-3"
                      d="M88.633,24.2451H95.38v6.9762h4.918V13.4949H95.38V20.128H88.633V13.4949H83.715V31.2213h4.918Z"></path>
                <path class="cls-3"
                      d="M109.104,31.2213h4.917V24.8169l6.634-11.322h-4.804l-4.117,6.9762-4.117-6.9762h-5.146l6.633,11.2077Z"></path>
                <path class="cls-3"
                      d="M136.208,14.5243a12.0472,12.0472,0,0,0-5.032-1.1437h-8.235V31.1071h8.235a10.2148,10.2148,0,0,0,5.032-1.1437,7.5158,7.5158,0,0,0,3.431-3.0878,9.3676,9.3676,0,0,0,0-9.3779A7.2846,7.2846,0,0,0,136.208,14.5243Zm-1.716,11.322a4.6656,4.6656,0,0,1-3.545,1.258h-3.088V17.3834h3.088a5.1506,5.1506,0,0,1,3.545,1.258,4.7383,4.7383,0,0,1,1.373,3.5453A4.6613,4.6613,0,0,1,134.492,25.8463Z"></path>
                <path class="cls-3"
                      d="M158.966,23.33a6.2513,6.2513,0,0,0,.915-3.3166,6.37,6.37,0,0,0-.915-3.4309,5.7533,5.7533,0,0,0-2.631-2.2873,9.1278,9.1278,0,0,0-4.117-.8005h-7.891V31.2213h4.918V26.5324h2.63l3.202,4.6889h5.261l-3.774-5.6038A5.7943,5.7943,0,0,0,158.966,23.33Zm-4.804-1.3724a3.2166,3.2166,0,0,1-2.287.6862H149.13V17.4976h2.745a3.4128,3.4128,0,0,1,2.287.6862,2.7571,2.7571,0,0,1,.801,1.9442A2.6966,2.6966,0,0,1,154.162,21.9578Z"></path>
                <path class="cls-3"
                      d="M168.344,27.79h7.319l1.372,3.4309h5.147l-7.663-17.7264h-4.803l-7.662,17.7264h5.032Zm3.659-9.3779,2.288,5.7182H169.83Z"></path>
                <path class="cls-3"
                      d="M190.417,25.0456l-4.804-11.5507h-5.26l7.433,17.7264h4.804l7.433-17.7264H195.22Z"></path>
                <path class="cls-3" d="M207.342,13.4949h-4.917V31.2213h4.917Z"></path>
                <path class="cls-3"
                      d="M225.298,14.2955a10.0665,10.0665,0,0,0-4.918-1.1436,9.7723,9.7723,0,0,0-4.918,1.1436,8.7194,8.7194,0,0,0-3.431,3.3166,9.3674,9.3674,0,0,0,0,9.3778,8.72,8.72,0,0,0,3.431,3.3166A10.0676,10.0676,0,0,0,220.38,31.45a9.7733,9.7733,0,0,0,4.918-1.1436,8.72,8.72,0,0,0,3.431-3.3166,9.3674,9.3674,0,0,0,0-9.3778A8.0108,8.0108,0,0,0,225.298,14.2955Zm-.801,10.6359a5.291,5.291,0,0,1-1.715,1.83,4.5471,4.5471,0,0,1-4.804,0,5.291,5.291,0,0,1-1.715-1.83,4.9556,4.9556,0,0,1-.572-2.63,6.3551,6.3551,0,0,1,.572-2.63,5.29,5.29,0,0,1,1.715-1.83,4.5471,4.5471,0,0,1,4.804,0,5.29,5.29,0,0,1,1.715,1.83,4.9556,4.9556,0,0,1,.572,2.63A5.9647,5.9647,0,0,1,224.497,24.9314Z"></path>
                <path class="cls-3"
                      d="M245.082,13.4949v9.3778l-7.662-9.3778h-4.003V31.2213h4.803V21.7291l7.663,9.4922H250V13.4949Z"></path>
                <path class="cls-3"
                      d="M97.438,39.57a10.0637,10.0637,0,0,0-4.917-1.1436A9.7708,9.7708,0,0,0,87.603,39.57a8.7135,8.7135,0,0,0-3.431,3.3166,9.3674,9.3674,0,0,0,0,9.3778,8.7135,8.7135,0,0,0,3.431,3.3166,9.9273,9.9273,0,0,0,4.803,1.1436h8.349l-1.716-2.2873a8.3808,8.3808,0,0,0,1.83-2.1729,9.3674,9.3674,0,0,0,0-9.3778A8.7069,8.7069,0,0,0,97.438,39.57ZM94.579,48.719H90.462l2.63,4.0028h-.686a4.2249,4.2249,0,0,1-2.401-.6862,5.2935,5.2935,0,0,1-1.716-1.83,4.965,4.965,0,0,1-.572-2.63,6.3551,6.3551,0,0,1,.572-2.63,4.411,4.411,0,0,1,1.716-1.83,4.5454,4.5454,0,0,1,4.803,0,5.291,5.291,0,0,1,1.715,1.83,4.9556,4.9556,0,0,1,.572,2.63,6.3551,6.3551,0,0,1-.572,2.63c-.114.2287-.228.3431-.343.5718Z"></path>
                <path class="cls-3"
                      d="M116.766,48.4905c0,2.8591-1.144,4.2315-3.317,4.2315s-3.316-1.3724-3.316-4.2315V38.77h-4.918v9.8353c0,2.63.686,4.689,2.173,6.0613a8.2473,8.2473,0,0,0,14.295-6.0613V38.77H116.88v9.721Z"></path>
                <path class="cls-3"
                      d="M130.718,49.4054h7.663v-3.774h-7.663V42.6579h8.806V38.77H125.801V56.496h13.952V52.6076h-9.035Z"></path>
                <path class="cls-3"
                      d="M156.908,47.2323a3.3635,3.3635,0,0,0,1.715-1.6011,3.7963,3.7963,0,0,0,.572-2.2872,4.226,4.226,0,0,0-1.715-3.431,8.8186,8.8186,0,0,0-5.032-1.258h-8.921V56.3815h9.378a9.3876,9.3876,0,0,0,5.261-1.258,3.9724,3.9724,0,0,0,1.83-3.5453,4.5584,4.5584,0,0,0-.801-2.7448A5.5254,5.5254,0,0,0,156.908,47.2323Zm-8.577-4.8033h3.431c1.601,0,2.516.5719,2.516,1.7155s-.801,1.7155-2.516,1.7155h-3.431Zm4.231,10.5215h-4.117V49.4053h4.117c1.716,0,2.63.5718,2.63,1.83C155.078,52.2644,154.278,52.9505,152.562,52.9505Z"></path>
                <path class="cls-3"
                      d="M168.344,49.4054h7.777v-3.774h-7.777V42.6579h8.806V38.77H163.541V56.496h13.952V52.6076h-9.149Z"></path>
                <path class="cls-3"
                      d="M187.328,43.23a4.61,4.61,0,0,1,2.516-.6862,5.1946,5.1946,0,0,1,4.117,2.0585l3.088-2.8591a8.72,8.72,0,0,0-3.202-2.516,10.5375,10.5375,0,0,0-4.346-.9149,10.0665,10.0665,0,0,0-4.918,1.1437,8.0033,8.0033,0,0,0-3.43,3.3165,9.3814,9.3814,0,0,0-1.258,4.8033,9.6941,9.6941,0,0,0,1.258,4.8033,8.7108,8.7108,0,0,0,3.43,3.3166,10.0676,10.0676,0,0,0,4.918,1.1436,10.9473,10.9473,0,0,0,4.346-.9149,8.4781,8.4781,0,0,0,3.202-2.516l-3.088-2.8591a5.1946,5.1946,0,0,1-4.117,2.0585,4.61,4.61,0,0,1-2.516-.6862,5.2893,5.2893,0,0,1-1.715-1.83,4.9554,4.9554,0,0,1-.572-2.63,6.3546,6.3546,0,0,1,.572-2.63A4.6829,4.6829,0,0,1,187.328,43.23Z"></path>
                <path class="cls-3" d="M129.231,37.054V35.796l6.748-1.7154V37.054Z"></path>
                <path class="cls-4"
                      d="M61.07,54.8948A34.0828,34.0828,0,1,0,34.081,68.161h1.143a57.1677,57.1677,0,0,0,13.953-2.63c11.207-3.7744,17.955,2.63,17.955,2.63ZM59.927,34.0805a24.4576,24.4576,0,0,1-2.974,11.8939L46.661,23.559c-1.602-3.4309-6.062-8.806-15.554-7.3193l6.061,13.0375H26.532L18.984,12.9231A25.6272,25.6272,0,0,1,34.081,8.0055,26.1637,26.1637,0,0,1,59.927,34.0805ZM33.28,44.1445c-2.287-4.6889-2.402-5.7182-5.718-8.3485a6.2918,6.2918,0,0,0-2.173-1.258c1.372.1143,2.745.2287,4.917.5718a17.6892,17.6892,0,0,1,8.349,3.5453A25.5307,25.5307,0,0,1,45.974,48.49l3.088,6.7475a25.1821,25.1821,0,0,1-14.981,4.8033,25.9091,25.9091,0,0,1-22.988-37.74L21.5,44.602c1.602,3.4309,6.062,8.6917,15.325,7.3193Z"></path>
            </g>
        </g>
    </g>
</svg>
