<?xml version="1.0" encoding="utf-8"?>
<!-- Generator: Adobe Illustrator 27.0.0, SVG Export Plug-In . SVG Version: 6.00 Build 0)  -->
<svg version="1.1" id="Calque_1" xmlns="http://www.w3.org/2000/svg" xmlns:xlink="http://www.w3.org/1999/xlink" x="0px" y="0px"
     viewBox="0 0 77 277" style="enable-background:new 0 0 77 277;" xml:space="preserve">
<style type="text/css">
	.st0{fill:#003C7A;}
	.st1{enable-background:new    ;}
	.st2{fill:#FFFFFF;}
	.st3{fill:#17CAE9;}
	.st4{fill:none;stroke:#FFFFFF;stroke-width:2;stroke-linecap:round;stroke-linejoin:round;}
</style>
    <g id="Group_360" transform="translate(-1511.798 -727.488)">
	<g id="Group_347">
		<rect id="Rectangle_276" x="1511.8" y="804.5" class="st0" width="77" height="200"/>
	</g>
        <g class="st1">
		<path class="st2" d="M1557.4,985.7H1543v-6.1c0-1.5,0.1-2.6,0.4-3.3s0.7-1.2,1.4-1.7s1.4-0.6,2.3-0.6c1.1,0,2,0.3,2.7,0.9
			s1.1,1.6,1.3,2.8c0.4-0.6,0.8-1.1,1.2-1.5c0.4-0.4,1.2-1,2.3-1.6l2.8-1.7v3.5l-3.1,2.1c-1.1,0.7-1.8,1.2-2.1,1.5
			c-0.3,0.3-0.5,0.6-0.6,0.9s-0.2,0.8-0.2,1.5v0.6h6V985.7z M1549.1,982.8v-2.1c0-1.4-0.1-2.3-0.2-2.6s-0.3-0.6-0.6-0.8
			s-0.6-0.3-1.1-0.3c-0.5,0-0.9,0.1-1.2,0.4s-0.5,0.6-0.6,1.1c0,0.2,0,0.9,0,2.1v2.3H1549.1z"/>
            <path class="st2" d="M1542.2,966.8l-2.9-1.3v-3.1l2.9,2.7V966.8z M1557.4,970.5H1543v-10.6h2.4v7.7h3.2v-7.2h2.4v7.2h3.9v-8h2.4
			V970.5z"/>
            <path class="st2" d="M1552.7,957.1l-0.3-2.8c0.9-0.2,1.6-0.5,2.1-1c0.4-0.5,0.7-1.2,0.7-2.1c0-0.9-0.2-1.6-0.6-2.1
			c-0.4-0.5-0.9-0.7-1.4-0.7c-0.3,0-0.6,0.1-0.9,0.3c-0.2,0.2-0.4,0.5-0.6,1c-0.1,0.3-0.3,1.1-0.6,2.3c-0.4,1.5-0.9,2.6-1.4,3.3
			c-0.8,0.9-1.7,1.3-2.9,1.3c-0.7,0-1.4-0.2-2-0.6c-0.6-0.4-1.1-1-1.5-1.8c-0.3-0.8-0.5-1.7-0.5-2.8c0-1.8,0.4-3.2,1.2-4.1
			s1.8-1.4,3.2-1.4l0.1,2.9c-0.7,0.1-1.3,0.4-1.6,0.8c-0.3,0.4-0.5,1-0.5,1.8c0,0.8,0.2,1.5,0.5,2c0.2,0.3,0.5,0.5,0.9,0.5
			c0.3,0,0.6-0.1,0.9-0.4c0.3-0.4,0.6-1.2,1-2.7s0.7-2.4,1-3.1s0.8-1.2,1.5-1.6c0.6-0.4,1.4-0.6,2.3-0.6c0.8,0,1.6,0.2,2.3,0.7
			c0.7,0.5,1.2,1.1,1.6,1.9c0.3,0.8,0.5,1.9,0.5,3.1c0,1.8-0.4,3.2-1.3,4.2C1555.5,956.4,1554.3,956.9,1552.7,957.1z"/>
            <path class="st2" d="M1557.4,942.3H1543v-10.6h2.4v7.7h3.2v-7.2h2.4v7.2h3.9v-8h2.4V942.3z"/>
            <path class="st2" d="M1557.4,928.1H1543v-6.1c0-1.5,0.1-2.6,0.4-3.3s0.7-1.2,1.4-1.7s1.4-0.6,2.3-0.6c1.1,0,2,0.3,2.7,0.9
			s1.1,1.6,1.3,2.8c0.4-0.6,0.8-1.1,1.2-1.5c0.4-0.4,1.2-1,2.3-1.6l2.8-1.7v3.5l-3.1,2.1c-1.1,0.7-1.8,1.2-2.1,1.5
			c-0.3,0.3-0.5,0.6-0.6,0.9s-0.2,0.8-0.2,1.5v0.6h6V928.1z M1549.1,925.3v-2.1c0-1.4-0.1-2.3-0.2-2.6s-0.3-0.6-0.6-0.8
			s-0.6-0.3-1.1-0.3c-0.5,0-0.9,0.1-1.2,0.4s-0.5,0.6-0.6,1.1c0,0.2,0,0.9,0,2.1v2.3H1549.1z"/>
            <path class="st2" d="M1557.4,909.6l-14.3,5.1v-3.1l10.6-3.6l-10.6-3.5v-3.1l14.3,5.1V909.6z"/>
            <path class="st2" d="M1557.4,887.7v3.1l-3.3,1.2v5.7l3.3,1.2v3.1l-14.3-5.6v-3.1L1557.4,887.7z M1551.7,893.1l-5.3,2l5.3,1.9
			V893.1z"/>
            <path class="st2" d="M1557.4,883.7h-11.9v4.2h-2.4v-11.4h2.4v4.2h11.9V883.7z"/>
            <path class="st2" d="M1557.4,874H1543v-2.9h14.3V874z"/>
            <path class="st2" d="M1550.3,868.2c-1.5,0-2.7-0.2-3.7-0.7c-0.7-0.3-1.4-0.8-2-1.3s-1-1.2-1.3-1.9c-0.4-0.9-0.6-1.9-0.6-3.1
			c0-2.1,0.7-3.8,2-5.1s3.1-1.9,5.5-1.9c2.3,0,4.1,0.6,5.4,1.9c1.3,1.3,2,2.9,2,5c0,2.1-0.6,3.8-1.9,5.1S1552.6,868.2,1550.3,868.2z
			 M1550.2,865.2c1.6,0,2.8-0.4,3.7-1.1c0.8-0.7,1.3-1.7,1.3-2.9s-0.4-2.1-1.2-2.8s-2.1-1.1-3.7-1.1c-1.6,0-2.9,0.4-3.7,1.1
			s-1.2,1.7-1.2,2.9s0.4,2.2,1.2,2.9S1548.5,865.2,1550.2,865.2z"/>
            <path class="st2" d="M1557.4,851.2H1543v-2.8l9.6-5.9h-9.6v-2.7h14.3v2.9l-9.3,5.8h9.3V851.2z"/>
	</g>
        <g id="Group_359">
		<g id="Group_348">
			<rect id="Rectangle_277" x="1511.8" y="727.5" class="st3" width="77" height="77"/>
		</g>
            <g id="Group_358">
			<g id="Group_357">
				<g id="Group_353">
					<g id="Group_352">
						<g id="Group_351">
							<g id="Group_350">
								<g id="Group_349">
									<path id="Rectangle_278" class="st4" d="M1534.8,751.5h30.9c1.2,0,2.2,1,2.2,2.2V781c0,1.2-1,2.2-2.2,2.2h-30.9
										c-1.2,0-2.2-1-2.2-2.2v-27.3C1532.6,752.5,1533.6,751.5,1534.8,751.5z"/>
								</g>
                                <line id="Line_40" class="st4" x1="1534.8" y1="758.6" x2="1565.7" y2="758.6"/>
                                <path id="Path_581" class="st4" d="M1557.9,768.5v-4.6h4.6"/>
                                <path id="Path_582" class="st4" d="M1548,768.5v-4.6h4.6"/>
                                <path id="Path_583" class="st4" d="M1538.1,768.5v-4.6h4.6"/>
                                <path id="Path_584" class="st4" d="M1548,777.8v-4.6h4.6"/>
                                <path id="Path_585" class="st4" d="M1557.9,777.8v-4.6h4.6"/>
                                <path id="Path_586" class="st4" d="M1538.1,777.8v-4.6h4.6"/>
							</g>
						</g>
					</g>
				</g>
                <g id="Group_356">
					<g id="Group_354">
						<line id="Line_41" class="st4" x1="1557.9" y1="754.2" x2="1557.9" y2="748.8"/>
					</g>
                    <g id="Group_355">
						<line id="Line_42" class="st4" x1="1542.7" y1="748.8" x2="1542.7" y2="754.2"/>
					</g>
				</g>
			</g>
		</g>
	</g>
</g>
</svg>
